# xmcd CD database file
#
# Track frame offsets:
#	150
#	19619
#	42974
#	65123
#	77062
#	90738
#	108716
#	129922
#	146057
#	167847
#	179803
#	190150
#
# Disc length: 2789 seconds
#
# Revision: 0
# Processed by: cddbd v1.5.2PL0 Copyright (c) Steve Scherf et al.
# Submitted via: CDex 1.70beta2
#
DISCID=ab0ae30c
DTITLE=加古隆 - Silent Garden
DYEAR=2009
DGENRE=New Age
TTITLE0=森と人の約束
TTITLE1=Silent Garden
TTITLE2=あなたの里に降る時雨
TTITLE3=少年時代
TTITLE4=風の戯れ
TTITLE5=雪の前
TTITLE6=舞姫
TTITLE7=Rain
TTITLE8=水底の風
TTITLE9=まどろむ森
TTITLE10=朝の光
TTITLE11=花の憧れ
EXTD=YEAR: 2009
EXTT0=
EXTT1=
EXTT2=
EXTT3=
EXTT4=
EXTT5=
EXTT6=
EXTT7=
EXTT8=
EXTT9=
EXTT10=
EXTT11=
PLAYORDER=
